<mxfile host="65bd71144e">
    <diagram name="第 1 页" id="cbl5mgijzEoQ5DeRgELI">
        <mxGraphModel dx="1406" dy="669" grid="1" gridSize="10" guides="1" tooltips="1" connect="1" arrows="1" fold="1" page="1" pageScale="1" pageWidth="1169" pageHeight="827" math="0" shadow="0">
            <root>
                <mxCell id="0"/>
                <mxCell id="1" parent="0"/>
                <mxCell id="88" style="edgeStyle=orthogonalEdgeStyle;rounded=0;html=1;exitX=1;exitY=0.5;exitDx=0;exitDy=0;entryX=0;entryY=0.5;entryDx=0;entryDy=0;endArrow=classic;endFill=1;" parent="1" source="87" target="52" edge="1">
                    <mxGeometry relative="1" as="geometry"/>
                </mxCell>
                <mxCell id="87" value="" style="rounded=1;whiteSpace=wrap;html=1;dashed=1;" parent="1" vertex="1">
                    <mxGeometry x="140" y="74" width="1240" height="680" as="geometry"/>
                </mxCell>
                <mxCell id="EzJIk5_3O4u8GWVWZSv7-13" value="" style="group" parent="1" vertex="1" connectable="0">
                    <mxGeometry x="1077" y="634" width="253" height="80" as="geometry"/>
                </mxCell>
                <mxCell id="EzJIk5_3O4u8GWVWZSv7-4" style="edgeStyle=orthogonalEdgeStyle;rounded=0;orthogonalLoop=1;jettySize=auto;html=1;exitX=0;exitY=0.75;exitDx=0;exitDy=0;entryX=0;entryY=0.75;entryDx=0;entryDy=0;" parent="EzJIk5_3O4u8GWVWZSv7-13" target="EzJIk5_3O4u8GWVWZSv7-2" edge="1">
                    <mxGeometry relative="1" as="geometry">
                        <mxPoint x="62" y="60.200000000000045" as="sourcePoint"/>
                        <Array as="points">
                            <mxPoint x="82" y="60"/>
                        </Array>
                    </mxGeometry>
                </mxCell>
                <mxCell id="EzJIk5_3O4u8GWVWZSv7-6" style="edgeStyle=orthogonalEdgeStyle;rounded=0;orthogonalLoop=1;jettySize=auto;html=1;exitX=1;exitY=0.5;exitDx=0;exitDy=0;" parent="EzJIk5_3O4u8GWVWZSv7-13" source="EzJIk5_3O4u8GWVWZSv7-2" edge="1">
                    <mxGeometry relative="1" as="geometry">
                        <mxPoint x="232" y="40" as="targetPoint"/>
                    </mxGeometry>
                </mxCell>
                <mxCell id="EzJIk5_3O4u8GWVWZSv7-2" value="F/F" style="whiteSpace=wrap;html=1;aspect=fixed;" parent="EzJIk5_3O4u8GWVWZSv7-13" vertex="1">
                    <mxGeometry x="112" width="80" height="80" as="geometry"/>
                </mxCell>
                <mxCell id="EzJIk5_3O4u8GWVWZSv7-5" value="rst" style="text;html=1;align=center;verticalAlign=middle;whiteSpace=wrap;rounded=0;fontSize=10;" parent="EzJIk5_3O4u8GWVWZSv7-13" vertex="1">
                    <mxGeometry x="51" y="55" width="10" height="10" as="geometry"/>
                </mxCell>
                <mxCell id="EzJIk5_3O4u8GWVWZSv7-7" value="state" style="text;html=1;align=center;verticalAlign=middle;whiteSpace=wrap;rounded=0;fontSize=10;" parent="EzJIk5_3O4u8GWVWZSv7-13" vertex="1">
                    <mxGeometry x="233" y="35" width="20" height="10" as="geometry"/>
                </mxCell>
                <mxCell id="EzJIk5_3O4u8GWVWZSv7-9" style="edgeStyle=orthogonalEdgeStyle;rounded=0;orthogonalLoop=1;jettySize=auto;html=1;exitX=1;exitY=0.5;exitDx=0;exitDy=-5;exitPerimeter=0;entryX=0;entryY=0.25;entryDx=0;entryDy=0;" parent="EzJIk5_3O4u8GWVWZSv7-13" source="EzJIk5_3O4u8GWVWZSv7-8" target="EzJIk5_3O4u8GWVWZSv7-2" edge="1">
                    <mxGeometry relative="1" as="geometry"/>
                </mxCell>
                <mxCell id="EzJIk5_3O4u8GWVWZSv7-10" style="edgeStyle=orthogonalEdgeStyle;rounded=0;orthogonalLoop=1;jettySize=auto;html=1;exitX=0.3;exitY=1;exitDx=10;exitDy=0;exitPerimeter=0;endArrow=none;endFill=0;" parent="EzJIk5_3O4u8GWVWZSv7-13" source="EzJIk5_3O4u8GWVWZSv7-8" edge="1">
                    <mxGeometry relative="1" as="geometry">
                        <mxPoint x="73" y="60" as="targetPoint"/>
                        <mxPoint x="73" y="49" as="sourcePoint"/>
                    </mxGeometry>
                </mxCell>
                <mxCell id="EzJIk5_3O4u8GWVWZSv7-8" value="Mux" style="shadow=0;dashed=0;align=center;html=1;strokeWidth=1;shape=mxgraph.electrical.abstract.mux2;whiteSpace=wrap;" parent="EzJIk5_3O4u8GWVWZSv7-13" vertex="1">
                    <mxGeometry x="48" y="5" width="50" height="40" as="geometry"/>
                </mxCell>
                <mxCell id="EzJIk5_3O4u8GWVWZSv7-11" value="INITIAL" style="text;html=1;align=center;verticalAlign=middle;whiteSpace=wrap;rounded=0;fontSize=10;" parent="EzJIk5_3O4u8GWVWZSv7-13" vertex="1">
                    <mxGeometry x="10" y="21" width="40" height="10" as="geometry"/>
                </mxCell>
                <mxCell id="EzJIk5_3O4u8GWVWZSv7-12" value="next_state" style="text;html=1;align=center;verticalAlign=middle;whiteSpace=wrap;rounded=0;fontSize=10;" parent="EzJIk5_3O4u8GWVWZSv7-13" vertex="1">
                    <mxGeometry y="9" width="48" height="10" as="geometry"/>
                </mxCell>
                <mxCell id="11" value="" style="group" parent="1" vertex="1" connectable="0">
                    <mxGeometry x="830" y="104" width="530" height="360" as="geometry"/>
                </mxCell>
                <mxCell id="10" value="" style="rounded=1;whiteSpace=wrap;html=1;dashed=1;" parent="11" vertex="1">
                    <mxGeometry width="530" height="360" as="geometry"/>
                </mxCell>
                <mxCell id="EzJIk5_3O4u8GWVWZSv7-89" value="" style="group" parent="11" vertex="1" connectable="0">
                    <mxGeometry x="10" y="20" width="507" height="321" as="geometry"/>
                </mxCell>
                <mxCell id="EzJIk5_3O4u8GWVWZSv7-15" style="edgeStyle=orthogonalEdgeStyle;rounded=0;orthogonalLoop=1;jettySize=auto;html=1;exitX=1;exitY=0.5;exitDx=0;exitDy=0;" parent="EzJIk5_3O4u8GWVWZSv7-89" source="EzJIk5_3O4u8GWVWZSv7-14" edge="1">
                    <mxGeometry relative="1" as="geometry">
                        <mxPoint x="448" y="281.125" as="targetPoint"/>
                    </mxGeometry>
                </mxCell>
                <mxCell id="EzJIk5_3O4u8GWVWZSv7-23" style="edgeStyle=orthogonalEdgeStyle;rounded=0;orthogonalLoop=1;jettySize=auto;html=1;exitX=0;exitY=0.75;exitDx=0;exitDy=0;entryX=0;entryY=0.75;entryDx=0;entryDy=0;" parent="EzJIk5_3O4u8GWVWZSv7-89" edge="1">
                    <mxGeometry relative="1" as="geometry">
                        <mxPoint x="329" y="316.0000000000001" as="targetPoint"/>
                        <mxPoint x="268" y="316.125" as="sourcePoint"/>
                        <Array as="points">
                            <mxPoint x="299" y="316"/>
                        </Array>
                    </mxGeometry>
                </mxCell>
                <mxCell id="EzJIk5_3O4u8GWVWZSv7-14" value="F/F" style="whiteSpace=wrap;html=1;aspect=fixed;" parent="EzJIk5_3O4u8GWVWZSv7-89" vertex="1">
                    <mxGeometry x="329" y="241" width="80" height="80" as="geometry"/>
                </mxCell>
                <mxCell id="EzJIk5_3O4u8GWVWZSv7-16" value="state_display" style="text;html=1;align=center;verticalAlign=middle;whiteSpace=wrap;rounded=0;fontSize=10;" parent="EzJIk5_3O4u8GWVWZSv7-89" vertex="1">
                    <mxGeometry x="450" y="275" width="57" height="10" as="geometry"/>
                </mxCell>
                <mxCell id="EzJIk5_3O4u8GWVWZSv7-17" style="edgeStyle=orthogonalEdgeStyle;rounded=0;orthogonalLoop=1;jettySize=auto;html=1;exitX=1;exitY=0.5;exitDx=0;exitDy=0;" parent="EzJIk5_3O4u8GWVWZSv7-89" source="EzJIk5_3O4u8GWVWZSv7-18" edge="1">
                    <mxGeometry relative="1" as="geometry">
                        <mxPoint x="448" y="161.125" as="targetPoint"/>
                    </mxGeometry>
                </mxCell>
                <mxCell id="EzJIk5_3O4u8GWVWZSv7-18" value="F/F" style="whiteSpace=wrap;html=1;aspect=fixed;" parent="EzJIk5_3O4u8GWVWZSv7-89" vertex="1">
                    <mxGeometry x="329" y="121" width="80" height="80" as="geometry"/>
                </mxCell>
                <mxCell id="EzJIk5_3O4u8GWVWZSv7-19" value="facing" style="text;html=1;align=center;verticalAlign=middle;whiteSpace=wrap;rounded=0;fontSize=10;" parent="EzJIk5_3O4u8GWVWZSv7-89" vertex="1">
                    <mxGeometry x="450" y="155" width="29" height="10" as="geometry"/>
                </mxCell>
                <mxCell id="EzJIk5_3O4u8GWVWZSv7-20" style="edgeStyle=orthogonalEdgeStyle;rounded=0;orthogonalLoop=1;jettySize=auto;html=1;exitX=1;exitY=0.5;exitDx=0;exitDy=0;" parent="EzJIk5_3O4u8GWVWZSv7-89" source="EzJIk5_3O4u8GWVWZSv7-21" edge="1">
                    <mxGeometry relative="1" as="geometry">
                        <mxPoint x="448" y="41.125" as="targetPoint"/>
                    </mxGeometry>
                </mxCell>
                <mxCell id="EzJIk5_3O4u8GWVWZSv7-21" value="F/F" style="whiteSpace=wrap;html=1;aspect=fixed;" parent="EzJIk5_3O4u8GWVWZSv7-89" vertex="1">
                    <mxGeometry x="329" y="1" width="80" height="80" as="geometry"/>
                </mxCell>
                <mxCell id="EzJIk5_3O4u8GWVWZSv7-22" value="out" style="text;html=1;align=center;verticalAlign=middle;whiteSpace=wrap;rounded=0;fontSize=10;" parent="EzJIk5_3O4u8GWVWZSv7-89" vertex="1">
                    <mxGeometry x="450" y="35" width="18" height="10" as="geometry"/>
                </mxCell>
                <mxCell id="EzJIk5_3O4u8GWVWZSv7-35" value="rst" style="text;html=1;align=center;verticalAlign=middle;whiteSpace=wrap;rounded=0;fontSize=10;" parent="EzJIk5_3O4u8GWVWZSv7-89" vertex="1">
                    <mxGeometry x="256" y="311" width="10" height="10" as="geometry"/>
                </mxCell>
                <mxCell id="EzJIk5_3O4u8GWVWZSv7-38" style="edgeStyle=orthogonalEdgeStyle;rounded=0;orthogonalLoop=1;jettySize=auto;html=1;exitX=1;exitY=0.5;exitDx=0;exitDy=-5;exitPerimeter=0;entryX=0;entryY=0.25;entryDx=0;entryDy=0;" parent="EzJIk5_3O4u8GWVWZSv7-89" source="EzJIk5_3O4u8GWVWZSv7-37" edge="1">
                    <mxGeometry relative="1" as="geometry">
                        <mxPoint x="329" y="276.0000000000001" as="targetPoint"/>
                    </mxGeometry>
                </mxCell>
                <mxCell id="EzJIk5_3O4u8GWVWZSv7-39" style="edgeStyle=orthogonalEdgeStyle;rounded=0;orthogonalLoop=1;jettySize=auto;html=1;exitX=0.3;exitY=1;exitDx=10;exitDy=0;exitPerimeter=0;endArrow=none;endFill=0;" parent="EzJIk5_3O4u8GWVWZSv7-89" source="EzJIk5_3O4u8GWVWZSv7-37" edge="1">
                    <mxGeometry relative="1" as="geometry">
                        <mxPoint x="288" y="316.0497390974814" as="targetPoint"/>
                        <mxPoint x="253" y="306" as="sourcePoint"/>
                        <Array as="points">
                            <mxPoint x="283" y="316"/>
                        </Array>
                    </mxGeometry>
                </mxCell>
                <mxCell id="EzJIk5_3O4u8GWVWZSv7-37" value="Mux" style="shadow=0;dashed=0;align=center;html=1;strokeWidth=1;shape=mxgraph.electrical.abstract.mux2;whiteSpace=wrap;" parent="EzJIk5_3O4u8GWVWZSv7-89" vertex="1">
                    <mxGeometry x="258" y="261" width="50" height="40" as="geometry"/>
                </mxCell>
                <mxCell id="EzJIk5_3O4u8GWVWZSv7-40" value="6" style="text;html=1;align=center;verticalAlign=middle;whiteSpace=wrap;rounded=0;fontSize=10;" parent="EzJIk5_3O4u8GWVWZSv7-89" vertex="1">
                    <mxGeometry x="248" y="279" width="10" height="10" as="geometry"/>
                </mxCell>
                <mxCell id="EzJIk5_3O4u8GWVWZSv7-44" value="Mux" style="shape=trapezoid;perimeter=trapezoidPerimeter;whiteSpace=wrap;html=1;fixedSize=1;rotation=90;" parent="EzJIk5_3O4u8GWVWZSv7-89" vertex="1">
                    <mxGeometry x="186" y="255" width="60" height="30" as="geometry"/>
                </mxCell>
                <mxCell id="EzJIk5_3O4u8GWVWZSv7-45" style="edgeStyle=orthogonalEdgeStyle;rounded=0;orthogonalLoop=1;jettySize=auto;html=1;exitX=0.5;exitY=0;exitDx=0;exitDy=0;entryX=0;entryY=0.15;entryDx=0;entryDy=3;entryPerimeter=0;endArrow=none;endFill=0;" parent="EzJIk5_3O4u8GWVWZSv7-89" source="EzJIk5_3O4u8GWVWZSv7-44" target="EzJIk5_3O4u8GWVWZSv7-37" edge="1">
                    <mxGeometry relative="1" as="geometry"/>
                </mxCell>
                <mxCell id="EzJIk5_3O4u8GWVWZSv7-49" style="edgeStyle=orthogonalEdgeStyle;rounded=0;orthogonalLoop=1;jettySize=auto;html=1;exitX=0;exitY=0.5;exitDx=0;exitDy=0;entryX=0;entryY=0.5;entryDx=0;entryDy=0;" parent="EzJIk5_3O4u8GWVWZSv7-89" target="EzJIk5_3O4u8GWVWZSv7-46" edge="1">
                    <mxGeometry relative="1" as="geometry">
                        <mxPoint x="141" y="250" as="sourcePoint"/>
                    </mxGeometry>
                </mxCell>
                <mxCell id="EzJIk5_3O4u8GWVWZSv7-46" value="INITIAL" style="text;html=1;align=center;verticalAlign=middle;whiteSpace=wrap;rounded=0;fontSize=10;" parent="EzJIk5_3O4u8GWVWZSv7-89" vertex="1">
                    <mxGeometry x="165" y="245" width="35" height="10" as="geometry"/>
                </mxCell>
                <mxCell id="EzJIk5_3O4u8GWVWZSv7-47" value="FILLING" style="text;html=1;align=center;verticalAlign=middle;whiteSpace=wrap;rounded=0;fontSize=10;" parent="EzJIk5_3O4u8GWVWZSv7-89" vertex="1">
                    <mxGeometry x="163" y="265" width="35" height="10" as="geometry"/>
                </mxCell>
                <mxCell id="EzJIk5_3O4u8GWVWZSv7-48" value="else" style="text;html=1;align=center;verticalAlign=middle;whiteSpace=wrap;rounded=0;fontSize=10;" parent="EzJIk5_3O4u8GWVWZSv7-89" vertex="1">
                    <mxGeometry x="175" y="285" width="25" height="10" as="geometry"/>
                </mxCell>
                <mxCell id="EzJIk5_3O4u8GWVWZSv7-50" style="edgeStyle=orthogonalEdgeStyle;rounded=0;orthogonalLoop=1;jettySize=auto;html=1;entryX=0;entryY=0.5;entryDx=0;entryDy=0;" parent="EzJIk5_3O4u8GWVWZSv7-89" edge="1">
                    <mxGeometry relative="1" as="geometry">
                        <mxPoint x="161" y="269.88" as="targetPoint"/>
                        <mxPoint x="141" y="270" as="sourcePoint"/>
                    </mxGeometry>
                </mxCell>
                <mxCell id="EzJIk5_3O4u8GWVWZSv7-51" style="edgeStyle=orthogonalEdgeStyle;rounded=0;orthogonalLoop=1;jettySize=auto;html=1;entryX=0;entryY=0.5;entryDx=0;entryDy=0;" parent="EzJIk5_3O4u8GWVWZSv7-89" edge="1">
                    <mxGeometry relative="1" as="geometry">
                        <mxPoint x="175" y="290" as="targetPoint"/>
                        <mxPoint x="141" y="290" as="sourcePoint"/>
                    </mxGeometry>
                </mxCell>
                <mxCell id="EzJIk5_3O4u8GWVWZSv7-52" value="next_state_display" style="text;html=1;align=center;verticalAlign=middle;whiteSpace=wrap;rounded=0;fontSize=10;" parent="EzJIk5_3O4u8GWVWZSv7-89" vertex="1">
                    <mxGeometry x="53" y="265" width="90" height="10" as="geometry"/>
                </mxCell>
                <mxCell id="EzJIk5_3O4u8GWVWZSv7-53" value="next_state_display" style="text;html=1;align=center;verticalAlign=middle;whiteSpace=wrap;rounded=0;fontSize=10;" parent="EzJIk5_3O4u8GWVWZSv7-89" vertex="1">
                    <mxGeometry x="53" y="284" width="90" height="10" as="geometry"/>
                </mxCell>
                <mxCell id="EzJIk5_3O4u8GWVWZSv7-54" value="6" style="text;html=1;align=center;verticalAlign=middle;whiteSpace=wrap;rounded=0;fontSize=10;" parent="EzJIk5_3O4u8GWVWZSv7-89" vertex="1">
                    <mxGeometry x="134" y="245" width="6" height="10" as="geometry"/>
                </mxCell>
                <mxCell id="EzJIk5_3O4u8GWVWZSv7-55" style="edgeStyle=orthogonalEdgeStyle;rounded=0;orthogonalLoop=1;jettySize=auto;html=1;exitX=0;exitY=0.75;exitDx=0;exitDy=0;entryX=0;entryY=0.75;entryDx=0;entryDy=0;" parent="EzJIk5_3O4u8GWVWZSv7-89" edge="1">
                    <mxGeometry relative="1" as="geometry">
                        <mxPoint x="329" y="196" as="targetPoint"/>
                        <mxPoint x="268" y="196.125" as="sourcePoint"/>
                        <Array as="points">
                            <mxPoint x="299" y="196"/>
                        </Array>
                    </mxGeometry>
                </mxCell>
                <mxCell id="EzJIk5_3O4u8GWVWZSv7-56" value="rst" style="text;html=1;align=center;verticalAlign=middle;whiteSpace=wrap;rounded=0;fontSize=10;" parent="EzJIk5_3O4u8GWVWZSv7-89" vertex="1">
                    <mxGeometry x="256" y="191" width="10" height="10" as="geometry"/>
                </mxCell>
                <mxCell id="EzJIk5_3O4u8GWVWZSv7-57" style="edgeStyle=orthogonalEdgeStyle;rounded=0;orthogonalLoop=1;jettySize=auto;html=1;exitX=1;exitY=0.5;exitDx=0;exitDy=-5;exitPerimeter=0;entryX=0;entryY=0.25;entryDx=0;entryDy=0;" parent="EzJIk5_3O4u8GWVWZSv7-89" source="EzJIk5_3O4u8GWVWZSv7-59" edge="1">
                    <mxGeometry relative="1" as="geometry">
                        <mxPoint x="329" y="156" as="targetPoint"/>
                    </mxGeometry>
                </mxCell>
                <mxCell id="EzJIk5_3O4u8GWVWZSv7-58" style="edgeStyle=orthogonalEdgeStyle;rounded=0;orthogonalLoop=1;jettySize=auto;html=1;exitX=0.3;exitY=1;exitDx=10;exitDy=0;exitPerimeter=0;endArrow=none;endFill=0;" parent="EzJIk5_3O4u8GWVWZSv7-89" source="EzJIk5_3O4u8GWVWZSv7-59" edge="1">
                    <mxGeometry relative="1" as="geometry">
                        <mxPoint x="288" y="196.0497390974814" as="targetPoint"/>
                        <mxPoint x="253" y="186" as="sourcePoint"/>
                        <Array as="points">
                            <mxPoint x="283" y="196"/>
                        </Array>
                    </mxGeometry>
                </mxCell>
                <mxCell id="EzJIk5_3O4u8GWVWZSv7-59" value="Mux" style="shadow=0;dashed=0;align=center;html=1;strokeWidth=1;shape=mxgraph.electrical.abstract.mux2;whiteSpace=wrap;" parent="EzJIk5_3O4u8GWVWZSv7-89" vertex="1">
                    <mxGeometry x="258" y="141" width="50" height="40" as="geometry"/>
                </mxCell>
                <mxCell id="EzJIk5_3O4u8GWVWZSv7-60" value="LEFT" style="text;html=1;align=center;verticalAlign=middle;whiteSpace=wrap;rounded=0;fontSize=10;" parent="EzJIk5_3O4u8GWVWZSv7-89" vertex="1">
                    <mxGeometry x="230" y="157" width="30" height="10" as="geometry"/>
                </mxCell>
                <mxCell id="EzJIk5_3O4u8GWVWZSv7-61" value="Mux" style="shape=trapezoid;perimeter=trapezoidPerimeter;whiteSpace=wrap;html=1;fixedSize=1;rotation=90;" parent="EzJIk5_3O4u8GWVWZSv7-89" vertex="1">
                    <mxGeometry x="186" y="135" width="60" height="30" as="geometry"/>
                </mxCell>
                <mxCell id="EzJIk5_3O4u8GWVWZSv7-62" style="edgeStyle=orthogonalEdgeStyle;rounded=0;orthogonalLoop=1;jettySize=auto;html=1;exitX=0.5;exitY=0;exitDx=0;exitDy=0;entryX=0;entryY=0.15;entryDx=0;entryDy=3;entryPerimeter=0;endArrow=none;endFill=0;" parent="EzJIk5_3O4u8GWVWZSv7-89" source="EzJIk5_3O4u8GWVWZSv7-61" target="EzJIk5_3O4u8GWVWZSv7-59" edge="1">
                    <mxGeometry relative="1" as="geometry"/>
                </mxCell>
                <mxCell id="EzJIk5_3O4u8GWVWZSv7-63" style="edgeStyle=orthogonalEdgeStyle;rounded=0;orthogonalLoop=1;jettySize=auto;html=1;exitX=0;exitY=0.5;exitDx=0;exitDy=0;entryX=0;entryY=0.5;entryDx=0;entryDy=0;" parent="EzJIk5_3O4u8GWVWZSv7-89" target="EzJIk5_3O4u8GWVWZSv7-64" edge="1">
                    <mxGeometry relative="1" as="geometry">
                        <mxPoint x="141" y="130" as="sourcePoint"/>
                    </mxGeometry>
                </mxCell>
                <mxCell id="EzJIk5_3O4u8GWVWZSv7-64" value="INITIAL" style="text;html=1;align=center;verticalAlign=middle;whiteSpace=wrap;rounded=0;fontSize=10;" parent="EzJIk5_3O4u8GWVWZSv7-89" vertex="1">
                    <mxGeometry x="165" y="125" width="35" height="10" as="geometry"/>
                </mxCell>
                <mxCell id="EzJIk5_3O4u8GWVWZSv7-65" value="FILLING" style="text;html=1;align=center;verticalAlign=middle;whiteSpace=wrap;rounded=0;fontSize=10;" parent="EzJIk5_3O4u8GWVWZSv7-89" vertex="1">
                    <mxGeometry x="163" y="145" width="35" height="10" as="geometry"/>
                </mxCell>
                <mxCell id="EzJIk5_3O4u8GWVWZSv7-66" value="else" style="text;html=1;align=center;verticalAlign=middle;whiteSpace=wrap;rounded=0;fontSize=10;" parent="EzJIk5_3O4u8GWVWZSv7-89" vertex="1">
                    <mxGeometry x="175" y="165" width="25" height="10" as="geometry"/>
                </mxCell>
                <mxCell id="EzJIk5_3O4u8GWVWZSv7-67" style="edgeStyle=orthogonalEdgeStyle;rounded=0;orthogonalLoop=1;jettySize=auto;html=1;entryX=0;entryY=0.5;entryDx=0;entryDy=0;" parent="EzJIk5_3O4u8GWVWZSv7-89" edge="1">
                    <mxGeometry relative="1" as="geometry">
                        <mxPoint x="161" y="149.88" as="targetPoint"/>
                        <mxPoint x="141" y="150" as="sourcePoint"/>
                    </mxGeometry>
                </mxCell>
                <mxCell id="EzJIk5_3O4u8GWVWZSv7-68" style="edgeStyle=orthogonalEdgeStyle;rounded=0;orthogonalLoop=1;jettySize=auto;html=1;entryX=0;entryY=0.5;entryDx=0;entryDy=0;" parent="EzJIk5_3O4u8GWVWZSv7-89" edge="1">
                    <mxGeometry relative="1" as="geometry">
                        <mxPoint x="175" y="170" as="targetPoint"/>
                        <mxPoint x="141" y="170" as="sourcePoint"/>
                    </mxGeometry>
                </mxCell>
                <mxCell id="EzJIk5_3O4u8GWVWZSv7-69" value="next_facing" style="text;html=1;align=center;verticalAlign=middle;whiteSpace=wrap;rounded=0;fontSize=10;" parent="EzJIk5_3O4u8GWVWZSv7-89" vertex="1">
                    <mxGeometry x="86" y="145" width="55" height="10" as="geometry"/>
                </mxCell>
                <mxCell id="EzJIk5_3O4u8GWVWZSv7-70" value="next_facing" style="text;html=1;align=center;verticalAlign=middle;whiteSpace=wrap;rounded=0;fontSize=10;" parent="EzJIk5_3O4u8GWVWZSv7-89" vertex="1">
                    <mxGeometry x="86" y="164" width="55" height="10" as="geometry"/>
                </mxCell>
                <mxCell id="EzJIk5_3O4u8GWVWZSv7-71" value="LEFT" style="text;html=1;align=center;verticalAlign=middle;whiteSpace=wrap;rounded=0;fontSize=10;" parent="EzJIk5_3O4u8GWVWZSv7-89" vertex="1">
                    <mxGeometry x="117" y="125" width="22" height="10" as="geometry"/>
                </mxCell>
                <mxCell id="EzJIk5_3O4u8GWVWZSv7-72" style="edgeStyle=orthogonalEdgeStyle;rounded=0;orthogonalLoop=1;jettySize=auto;html=1;exitX=0;exitY=0.75;exitDx=0;exitDy=0;entryX=0;entryY=0.75;entryDx=0;entryDy=0;" parent="EzJIk5_3O4u8GWVWZSv7-89" edge="1">
                    <mxGeometry relative="1" as="geometry">
                        <mxPoint x="329" y="76" as="targetPoint"/>
                        <mxPoint x="268" y="76.125" as="sourcePoint"/>
                        <Array as="points">
                            <mxPoint x="299" y="76"/>
                        </Array>
                    </mxGeometry>
                </mxCell>
                <mxCell id="EzJIk5_3O4u8GWVWZSv7-73" value="rst" style="text;html=1;align=center;verticalAlign=middle;whiteSpace=wrap;rounded=0;fontSize=10;" parent="EzJIk5_3O4u8GWVWZSv7-89" vertex="1">
                    <mxGeometry x="256" y="71" width="10" height="10" as="geometry"/>
                </mxCell>
                <mxCell id="EzJIk5_3O4u8GWVWZSv7-74" style="edgeStyle=orthogonalEdgeStyle;rounded=0;orthogonalLoop=1;jettySize=auto;html=1;exitX=1;exitY=0.5;exitDx=0;exitDy=-5;exitPerimeter=0;entryX=0;entryY=0.25;entryDx=0;entryDy=0;" parent="EzJIk5_3O4u8GWVWZSv7-89" source="EzJIk5_3O4u8GWVWZSv7-76" edge="1">
                    <mxGeometry relative="1" as="geometry">
                        <mxPoint x="329" y="36" as="targetPoint"/>
                    </mxGeometry>
                </mxCell>
                <mxCell id="EzJIk5_3O4u8GWVWZSv7-75" style="edgeStyle=orthogonalEdgeStyle;rounded=0;orthogonalLoop=1;jettySize=auto;html=1;exitX=0.3;exitY=1;exitDx=10;exitDy=0;exitPerimeter=0;endArrow=none;endFill=0;" parent="EzJIk5_3O4u8GWVWZSv7-89" source="EzJIk5_3O4u8GWVWZSv7-76" edge="1">
                    <mxGeometry relative="1" as="geometry">
                        <mxPoint x="288" y="76.04973909748139" as="targetPoint"/>
                        <mxPoint x="253" y="66" as="sourcePoint"/>
                        <Array as="points">
                            <mxPoint x="283" y="76"/>
                        </Array>
                    </mxGeometry>
                </mxCell>
                <mxCell id="EzJIk5_3O4u8GWVWZSv7-76" value="Mux" style="shadow=0;dashed=0;align=center;html=1;strokeWidth=1;shape=mxgraph.electrical.abstract.mux2;whiteSpace=wrap;" parent="EzJIk5_3O4u8GWVWZSv7-89" vertex="1">
                    <mxGeometry x="258" y="21" width="50" height="40" as="geometry"/>
                </mxCell>
                <mxCell id="EzJIk5_3O4u8GWVWZSv7-77" value="0" style="text;html=1;align=center;verticalAlign=middle;whiteSpace=wrap;rounded=0;fontSize=10;" parent="EzJIk5_3O4u8GWVWZSv7-89" vertex="1">
                    <mxGeometry x="248" y="39" width="10" height="10" as="geometry"/>
                </mxCell>
                <mxCell id="EzJIk5_3O4u8GWVWZSv7-78" value="Mux" style="shape=trapezoid;perimeter=trapezoidPerimeter;whiteSpace=wrap;html=1;fixedSize=1;rotation=90;" parent="EzJIk5_3O4u8GWVWZSv7-89" vertex="1">
                    <mxGeometry x="186" y="15" width="60" height="30" as="geometry"/>
                </mxCell>
                <mxCell id="EzJIk5_3O4u8GWVWZSv7-79" style="edgeStyle=orthogonalEdgeStyle;rounded=0;orthogonalLoop=1;jettySize=auto;html=1;exitX=0.5;exitY=0;exitDx=0;exitDy=0;entryX=0;entryY=0.15;entryDx=0;entryDy=3;entryPerimeter=0;endArrow=none;endFill=0;" parent="EzJIk5_3O4u8GWVWZSv7-89" source="EzJIk5_3O4u8GWVWZSv7-78" target="EzJIk5_3O4u8GWVWZSv7-76" edge="1">
                    <mxGeometry relative="1" as="geometry"/>
                </mxCell>
                <mxCell id="EzJIk5_3O4u8GWVWZSv7-80" style="edgeStyle=orthogonalEdgeStyle;rounded=0;orthogonalLoop=1;jettySize=auto;html=1;exitX=0;exitY=0.5;exitDx=0;exitDy=0;entryX=0;entryY=0.5;entryDx=0;entryDy=0;" parent="EzJIk5_3O4u8GWVWZSv7-89" target="EzJIk5_3O4u8GWVWZSv7-81" edge="1">
                    <mxGeometry relative="1" as="geometry">
                        <mxPoint x="141" y="10" as="sourcePoint"/>
                    </mxGeometry>
                </mxCell>
                <mxCell id="EzJIk5_3O4u8GWVWZSv7-81" value="INITIAL" style="text;html=1;align=center;verticalAlign=middle;whiteSpace=wrap;rounded=0;fontSize=10;" parent="EzJIk5_3O4u8GWVWZSv7-89" vertex="1">
                    <mxGeometry x="165" y="5" width="35" height="10" as="geometry"/>
                </mxCell>
                <mxCell id="EzJIk5_3O4u8GWVWZSv7-82" value="FILLING" style="text;html=1;align=center;verticalAlign=middle;whiteSpace=wrap;rounded=0;fontSize=10;" parent="EzJIk5_3O4u8GWVWZSv7-89" vertex="1">
                    <mxGeometry x="163" y="25" width="35" height="10" as="geometry"/>
                </mxCell>
                <mxCell id="EzJIk5_3O4u8GWVWZSv7-83" value="else" style="text;html=1;align=center;verticalAlign=middle;whiteSpace=wrap;rounded=0;fontSize=10;" parent="EzJIk5_3O4u8GWVWZSv7-89" vertex="1">
                    <mxGeometry x="175" y="45" width="25" height="10" as="geometry"/>
                </mxCell>
                <mxCell id="EzJIk5_3O4u8GWVWZSv7-84" style="edgeStyle=orthogonalEdgeStyle;rounded=0;orthogonalLoop=1;jettySize=auto;html=1;entryX=0;entryY=0.5;entryDx=0;entryDy=0;" parent="EzJIk5_3O4u8GWVWZSv7-89" edge="1">
                    <mxGeometry relative="1" as="geometry">
                        <mxPoint x="161" y="29.879999999999995" as="targetPoint"/>
                        <mxPoint x="141" y="30" as="sourcePoint"/>
                    </mxGeometry>
                </mxCell>
                <mxCell id="EzJIk5_3O4u8GWVWZSv7-85" style="edgeStyle=orthogonalEdgeStyle;rounded=0;orthogonalLoop=1;jettySize=auto;html=1;entryX=0;entryY=0.5;entryDx=0;entryDy=0;" parent="EzJIk5_3O4u8GWVWZSv7-89" edge="1">
                    <mxGeometry relative="1" as="geometry">
                        <mxPoint x="175" y="50" as="targetPoint"/>
                        <mxPoint x="141" y="50" as="sourcePoint"/>
                    </mxGeometry>
                </mxCell>
                <mxCell id="EzJIk5_3O4u8GWVWZSv7-86" value="out | (1 &amp;lt;&amp;lt; next_state_display)" style="text;html=1;align=center;verticalAlign=middle;whiteSpace=wrap;rounded=0;fontSize=10;" parent="EzJIk5_3O4u8GWVWZSv7-89" vertex="1">
                    <mxGeometry y="24" width="145" height="10" as="geometry"/>
                </mxCell>
                <mxCell id="EzJIk5_3O4u8GWVWZSv7-87" value="0" style="text;html=1;align=center;verticalAlign=middle;whiteSpace=wrap;rounded=0;fontSize=10;" parent="EzJIk5_3O4u8GWVWZSv7-89" vertex="1">
                    <mxGeometry x="135" y="45" width="5" height="10" as="geometry"/>
                </mxCell>
                <mxCell id="EzJIk5_3O4u8GWVWZSv7-88" value="0" style="text;html=1;align=center;verticalAlign=middle;whiteSpace=wrap;rounded=0;fontSize=10;" parent="EzJIk5_3O4u8GWVWZSv7-89" vertex="1">
                    <mxGeometry x="134" y="5" width="6" height="10" as="geometry"/>
                </mxCell>
                <mxCell id="62" value="" style="group" parent="1" vertex="1" connectable="0">
                    <mxGeometry x="1452" y="375" width="419" height="220" as="geometry"/>
                </mxCell>
                <mxCell id="52" value="" style="rounded=1;whiteSpace=wrap;html=1;dashed=1;" parent="62" vertex="1">
                    <mxGeometry width="419" height="220" as="geometry"/>
                </mxCell>
                <mxCell id="29" style="edgeStyle=orthogonalEdgeStyle;curved=1;html=1;exitX=1;exitY=0.5;exitDx=0;exitDy=-5;exitPerimeter=0;" parent="62" source="28" edge="1">
                    <mxGeometry relative="1" as="geometry">
                        <mxPoint x="369" y="95.20000000000005" as="targetPoint"/>
                    </mxGeometry>
                </mxCell>
                <mxCell id="28" value="Mux" style="shadow=0;dashed=0;align=center;html=1;strokeWidth=1;shape=mxgraph.electrical.abstract.mux2;" parent="62" vertex="1">
                    <mxGeometry x="279" y="40" width="80" height="120" as="geometry"/>
                </mxCell>
                <mxCell id="30" value="DISPLAY" style="text;html=1;align=center;verticalAlign=middle;whiteSpace=wrap;rounded=0;fontSize=10;" parent="62" vertex="1">
                    <mxGeometry x="372" y="90" width="40" height="10" as="geometry"/>
                </mxCell>
                <mxCell id="31" value="rst" style="text;html=1;align=center;verticalAlign=middle;whiteSpace=wrap;rounded=0;fontSize=10;" parent="62" vertex="1">
                    <mxGeometry x="309" y="160" width="20" height="10" as="geometry"/>
                </mxCell>
                <mxCell id="32" value="7'b1111111" style="text;html=1;align=center;verticalAlign=middle;whiteSpace=wrap;rounded=0;fontSize=10;" parent="62" vertex="1">
                    <mxGeometry x="229" y="115" width="50" height="10" as="geometry"/>
                </mxCell>
                <mxCell id="38" style="edgeStyle=orthogonalEdgeStyle;rounded=0;html=1;exitX=1;exitY=0.5;exitDx=0;exitDy=0;entryX=0;entryY=0.21666666666666667;entryDx=0;entryDy=3;entryPerimeter=0;endArrow=none;endFill=0;" parent="62" source="35" target="28" edge="1">
                    <mxGeometry relative="1" as="geometry"/>
                </mxCell>
                <mxCell id="39" style="edgeStyle=orthogonalEdgeStyle;rounded=0;html=1;exitX=0.5;exitY=1;exitDx=0;exitDy=0;endArrow=none;endFill=0;" parent="62" edge="1">
                    <mxGeometry relative="1" as="geometry">
                        <mxPoint x="158.86792452830196" y="100" as="targetPoint"/>
                        <mxPoint x="159" y="90" as="sourcePoint"/>
                    </mxGeometry>
                </mxCell>
                <mxCell id="41" style="edgeStyle=orthogonalEdgeStyle;rounded=0;html=1;exitX=0.75;exitY=1;exitDx=0;exitDy=0;endArrow=none;endFill=0;" parent="62" source="35" edge="1">
                    <mxGeometry relative="1" as="geometry">
                        <mxPoint x="198.9523809523809" y="100" as="targetPoint"/>
                    </mxGeometry>
                </mxCell>
                <mxCell id="43" style="edgeStyle=orthogonalEdgeStyle;rounded=0;html=1;exitX=0;exitY=0.5;exitDx=0;exitDy=0;endArrow=none;endFill=0;" parent="62" source="35" edge="1">
                    <mxGeometry relative="1" as="geometry">
                        <mxPoint x="129" y="50.081632653061206" as="targetPoint"/>
                    </mxGeometry>
                </mxCell>
                <mxCell id="35" value="Mux" style="whiteSpace=wrap;html=1;aspect=fixed;" parent="62" vertex="1">
                    <mxGeometry x="139" y="10" width="80" height="80" as="geometry"/>
                </mxCell>
                <mxCell id="40" value="state" style="text;html=1;align=center;verticalAlign=middle;whiteSpace=wrap;rounded=0;fontSize=10;" parent="62" vertex="1">
                    <mxGeometry x="145" y="100" width="30" height="10" as="geometry"/>
                </mxCell>
                <mxCell id="42" value="clk_1sec" style="text;html=1;align=center;verticalAlign=middle;whiteSpace=wrap;rounded=0;fontSize=10;" parent="62" vertex="1">
                    <mxGeometry x="182" y="100" width="40" height="10" as="geometry"/>
                </mxCell>
                <mxCell id="45" style="edgeStyle=orthogonalEdgeStyle;rounded=0;html=1;exitX=0;exitY=0.25;exitDx=0;exitDy=0;endArrow=none;endFill=0;" parent="62" source="44" edge="1">
                    <mxGeometry relative="1" as="geometry">
                        <mxPoint x="69" y="37.469879518072275" as="targetPoint"/>
                    </mxGeometry>
                </mxCell>
                <mxCell id="47" style="edgeStyle=orthogonalEdgeStyle;rounded=0;html=1;exitX=0;exitY=0.75;exitDx=0;exitDy=0;endArrow=none;endFill=0;" parent="62" source="44" edge="1">
                    <mxGeometry relative="1" as="geometry">
                        <mxPoint x="69" y="62.53012048192767" as="targetPoint"/>
                    </mxGeometry>
                </mxCell>
                <mxCell id="44" value="LUT" style="whiteSpace=wrap;html=1;aspect=fixed;" parent="62" vertex="1">
                    <mxGeometry x="79" y="25" width="50" height="50" as="geometry"/>
                </mxCell>
                <mxCell id="46" value="state_display" style="text;html=1;align=center;verticalAlign=middle;whiteSpace=wrap;rounded=0;fontSize=10;" parent="62" vertex="1">
                    <mxGeometry x="9" y="32" width="60" height="10" as="geometry"/>
                </mxCell>
                <mxCell id="48" value="out" style="text;html=1;align=center;verticalAlign=middle;whiteSpace=wrap;rounded=0;fontSize=10;" parent="62" vertex="1">
                    <mxGeometry x="50" y="57" width="20" height="10" as="geometry"/>
                </mxCell>
                <mxCell id="49" value="DIGIT" style="text;html=1;align=center;verticalAlign=middle;whiteSpace=wrap;rounded=0;fontSize=10;" parent="62" vertex="1">
                    <mxGeometry x="372" y="190" width="27" height="10" as="geometry"/>
                </mxCell>
                <mxCell id="51" style="edgeStyle=orthogonalEdgeStyle;rounded=0;html=1;exitX=1;exitY=0.5;exitDx=0;exitDy=0;endArrow=classic;endFill=1;" parent="62" source="50" edge="1">
                    <mxGeometry relative="1" as="geometry">
                        <mxPoint x="369" y="194.94505494505495" as="targetPoint"/>
                    </mxGeometry>
                </mxCell>
                <mxCell id="50" value="4'b1110" style="text;html=1;align=center;verticalAlign=middle;whiteSpace=wrap;rounded=0;fontSize=10;" parent="62" vertex="1">
                    <mxGeometry x="309" y="190" width="37" height="10" as="geometry"/>
                </mxCell>
                <mxCell id="67" value="" style="group" parent="1" vertex="1" connectable="0">
                    <mxGeometry x="390" y="494" width="630" height="250" as="geometry"/>
                </mxCell>
                <mxCell id="66" value="" style="rounded=1;whiteSpace=wrap;html=1;dashed=1;" parent="67" vertex="1">
                    <mxGeometry width="630" height="250" as="geometry"/>
                </mxCell>
                <mxCell id="64" value="" style="rounded=1;whiteSpace=wrap;html=1;dashed=1;" parent="67" vertex="1">
                    <mxGeometry x="20" y="83" width="258" height="100" as="geometry"/>
                </mxCell>
                <mxCell id="27" value="" style="group" parent="67" vertex="1" connectable="0">
                    <mxGeometry x="328" width="290" height="236" as="geometry"/>
                </mxCell>
                <mxCell id="12" value="" style="rounded=1;whiteSpace=wrap;html=1;dashed=1;" parent="27" vertex="1">
                    <mxGeometry y="26" width="290" height="210" as="geometry"/>
                </mxCell>
                <mxCell id="25" value="else" style="edgeStyle=orthogonalEdgeStyle;curved=1;html=1;exitX=0.25;exitY=0;exitDx=0;exitDy=0;entryX=0.75;entryY=0;entryDx=0;entryDy=0;" parent="27" source="13" target="13" edge="1">
                    <mxGeometry relative="1" as="geometry">
                        <mxPoint x="160" y="26" as="targetPoint"/>
                        <Array as="points">
                            <mxPoint x="120" y="56"/>
                            <mxPoint x="120" y="36"/>
                            <mxPoint x="157" y="36"/>
                        </Array>
                    </mxGeometry>
                </mxCell>
                <mxCell id="13" value="INITIAL" style="rounded=0;whiteSpace=wrap;html=1;" parent="27" vertex="1">
                    <mxGeometry x="112" y="56" width="60" height="30" as="geometry"/>
                </mxCell>
                <mxCell id="16" value="dir = DOWN" style="edgeStyle=none;html=1;exitX=1;exitY=0.5;exitDx=0;exitDy=0;entryX=0;entryY=0.5;entryDx=0;entryDy=0;" parent="27" edge="1">
                    <mxGeometry x="-0.0588" relative="1" as="geometry">
                        <mxPoint x="100.00000000000006" y="181" as="sourcePoint"/>
                        <mxPoint x="185" y="181" as="targetPoint"/>
                        <mxPoint as="offset"/>
                    </mxGeometry>
                </mxCell>
                <mxCell id="23" value="else" style="edgeStyle=orthogonalEdgeStyle;html=1;exitX=0;exitY=0.5;exitDx=0;exitDy=0;curved=1;entryX=0.25;entryY=1;entryDx=0;entryDy=0;" parent="27" source="14" target="14" edge="1">
                    <mxGeometry x="-0.1819" relative="1" as="geometry">
                        <mxPoint x="50" y="236" as="targetPoint"/>
                        <Array as="points">
                            <mxPoint x="20" y="181"/>
                            <mxPoint x="20" y="216"/>
                            <mxPoint x="55" y="216"/>
                        </Array>
                        <mxPoint as="offset"/>
                    </mxGeometry>
                </mxCell>
                <mxCell id="14" value="MOVING" style="rounded=0;whiteSpace=wrap;html=1;" parent="27" vertex="1">
                    <mxGeometry x="40" y="166" width="60" height="30" as="geometry"/>
                </mxCell>
                <mxCell id="17" value="cycle_cnt = 3" style="edgeStyle=none;html=1;exitX=0;exitY=1;exitDx=0;exitDy=0;entryX=0.5;entryY=0;entryDx=0;entryDy=0;" parent="27" source="13" target="14" edge="1">
                    <mxGeometry relative="1" as="geometry"/>
                </mxCell>
                <mxCell id="18" value="cycle_fill = 2'10" style="edgeStyle=none;html=1;exitX=0.5;exitY=0;exitDx=0;exitDy=0;entryX=1;entryY=1;entryDx=0;entryDy=0;" parent="27" source="15" target="13" edge="1">
                    <mxGeometry relative="1" as="geometry"/>
                </mxCell>
                <mxCell id="24" value="else" style="edgeStyle=orthogonalEdgeStyle;curved=1;html=1;exitX=1;exitY=0.5;exitDx=0;exitDy=0;entryX=0.75;entryY=1;entryDx=0;entryDy=0;" parent="27" source="15" target="15" edge="1">
                    <mxGeometry x="-0.1667" relative="1" as="geometry">
                        <mxPoint x="280" y="226" as="targetPoint"/>
                        <Array as="points">
                            <mxPoint x="270" y="181"/>
                            <mxPoint x="270" y="216"/>
                            <mxPoint x="230" y="216"/>
                        </Array>
                        <mxPoint as="offset"/>
                    </mxGeometry>
                </mxCell>
                <mxCell id="15" value="FILLING" style="rounded=0;whiteSpace=wrap;html=1;" parent="27" vertex="1">
                    <mxGeometry x="185" y="166" width="60" height="30" as="geometry"/>
                </mxCell>
                <mxCell id="26" value="state FSM" style="text;html=1;strokeColor=none;fillColor=none;align=center;verticalAlign=middle;whiteSpace=wrap;rounded=0;" parent="27" vertex="1">
                    <mxGeometry x="15" width="60" height="30" as="geometry"/>
                </mxCell>
                <mxCell id="63" value="" style="group" parent="67" vertex="1" connectable="0">
                    <mxGeometry x="28" y="93" width="245" height="80" as="geometry"/>
                </mxCell>
                <mxCell id="2" style="edgeStyle=none;html=1;exitX=1;exitY=0.25;exitDx=0;exitDy=0;" parent="63" source="EzJIk5_3O4u8GWVWZSv7-90" edge="1">
                    <mxGeometry relative="1" as="geometry">
                        <mxPoint x="202" y="20.185185185185162" as="targetPoint"/>
                    </mxGeometry>
                </mxCell>
                <mxCell id="3" style="edgeStyle=none;html=1;exitX=1;exitY=0.75;exitDx=0;exitDy=0;" parent="63" source="EzJIk5_3O4u8GWVWZSv7-90" edge="1">
                    <mxGeometry relative="1" as="geometry">
                        <mxPoint x="202" y="60.18518518518516" as="targetPoint"/>
                    </mxGeometry>
                </mxCell>
                <mxCell id="4" style="edgeStyle=none;html=1;exitX=0;exitY=0.75;exitDx=0;exitDy=0;entryX=0;entryY=0.75;entryDx=0;entryDy=0;" parent="63" edge="1">
                    <mxGeometry relative="1" as="geometry">
                        <mxPoint x="82" y="69" as="targetPoint"/>
                        <mxPoint x="42" y="69.18518518518516" as="sourcePoint"/>
                    </mxGeometry>
                </mxCell>
                <mxCell id="5" style="edgeStyle=none;html=1;exitX=0;exitY=0.25;exitDx=0;exitDy=0;entryX=0;entryY=0.25;entryDx=0;entryDy=0;" parent="63" edge="1">
                    <mxGeometry relative="1" as="geometry">
                        <mxPoint x="82" y="10" as="targetPoint"/>
                        <mxPoint x="42" y="10.185185185185162" as="sourcePoint"/>
                    </mxGeometry>
                </mxCell>
                <mxCell id="19" style="edgeStyle=none;html=1;exitX=0;exitY=0.25;exitDx=0;exitDy=0;entryX=0;entryY=0.25;entryDx=0;entryDy=0;" parent="63" edge="1">
                    <mxGeometry relative="1" as="geometry">
                        <mxPoint x="82" y="24" as="targetPoint"/>
                        <mxPoint x="42" y="23.909090909090935" as="sourcePoint"/>
                    </mxGeometry>
                </mxCell>
                <mxCell id="21" style="edgeStyle=none;html=1;exitX=0;exitY=0.75;exitDx=0;exitDy=0;entryX=0;entryY=0.75;entryDx=0;entryDy=0;" parent="63" edge="1">
                    <mxGeometry relative="1" as="geometry">
                        <mxPoint x="82" y="37" as="targetPoint"/>
                        <mxPoint x="42" y="36.909090909090935" as="sourcePoint"/>
                    </mxGeometry>
                </mxCell>
                <mxCell id="EzJIk5_3O4u8GWVWZSv7-90" value="counter" style="whiteSpace=wrap;html=1;aspect=fixed;" parent="63" vertex="1">
                    <mxGeometry x="82" width="80" height="80" as="geometry"/>
                </mxCell>
                <mxCell id="6" value="cycle_cnt&lt;br&gt;" style="text;html=1;align=center;verticalAlign=middle;whiteSpace=wrap;rounded=0;fontSize=10;" parent="63" vertex="1">
                    <mxGeometry x="205" y="55" width="40" height="10" as="geometry"/>
                </mxCell>
                <mxCell id="7" value="cycle_fill" style="text;html=1;align=center;verticalAlign=middle;whiteSpace=wrap;rounded=0;fontSize=10;" parent="63" vertex="1">
                    <mxGeometry x="205" y="15" width="40" height="10" as="geometry"/>
                </mxCell>
                <mxCell id="8" value="clk_1sec" style="text;html=1;align=center;verticalAlign=middle;whiteSpace=wrap;rounded=0;fontSize=10;" parent="63" vertex="1">
                    <mxGeometry y="64" width="40" height="10" as="geometry"/>
                </mxCell>
                <mxCell id="9" value="rst" style="text;html=1;align=center;verticalAlign=middle;whiteSpace=wrap;rounded=0;fontSize=10;" parent="63" vertex="1">
                    <mxGeometry x="28" y="5" width="12" height="10" as="geometry"/>
                </mxCell>
                <mxCell id="20" value="state" style="text;html=1;align=center;verticalAlign=middle;whiteSpace=wrap;rounded=0;fontSize=10;" parent="63" vertex="1">
                    <mxGeometry x="21" y="18" width="18" height="10" as="geometry"/>
                </mxCell>
                <mxCell id="22" value="out" style="text;html=1;align=center;verticalAlign=middle;whiteSpace=wrap;rounded=0;fontSize=10;" parent="63" vertex="1">
                    <mxGeometry x="22" y="32" width="22" height="10" as="geometry"/>
                </mxCell>
                <mxCell id="65" style="edgeStyle=orthogonalEdgeStyle;rounded=0;html=1;exitX=0;exitY=0.5;exitDx=0;exitDy=0;endArrow=classic;endFill=1;entryX=0;entryY=0.5;entryDx=0;entryDy=0;" parent="67" target="12" edge="1">
                    <mxGeometry relative="1" as="geometry">
                        <mxPoint x="278" y="138" as="sourcePoint"/>
                        <Array as="points">
                            <mxPoint x="278" y="131"/>
                        </Array>
                    </mxGeometry>
                </mxCell>
                <mxCell id="68" style="edgeStyle=orthogonalEdgeStyle;rounded=0;html=1;exitX=1;exitY=0.5;exitDx=0;exitDy=0;entryX=0;entryY=0.5;entryDx=0;entryDy=0;endArrow=classic;endFill=1;" parent="1" source="66" target="EzJIk5_3O4u8GWVWZSv7-12" edge="1">
                    <mxGeometry relative="1" as="geometry"/>
                </mxCell>
                <mxCell id="84" value="" style="group" parent="1" vertex="1" connectable="0">
                    <mxGeometry x="180" y="194" width="603" height="200" as="geometry"/>
                </mxCell>
                <mxCell id="61" value="" style="group" parent="84" vertex="1" connectable="0">
                    <mxGeometry y="30" width="290" height="150" as="geometry"/>
                </mxCell>
                <mxCell id="80" value="" style="rounded=1;whiteSpace=wrap;html=1;dashed=1;" parent="61" vertex="1">
                    <mxGeometry x="-10" y="-10" width="300" height="160" as="geometry"/>
                </mxCell>
                <mxCell id="59" style="edgeStyle=orthogonalEdgeStyle;rounded=0;html=1;exitX=1;exitY=0.5;exitDx=0;exitDy=0;endArrow=classic;endFill=1;" parent="61" source="54" edge="1">
                    <mxGeometry relative="1" as="geometry">
                        <mxPoint x="240" y="70.127659574468" as="targetPoint"/>
                    </mxGeometry>
                </mxCell>
                <mxCell id="54" value="delay_one_pulse" style="whiteSpace=wrap;html=1;aspect=fixed;" parent="61" vertex="1">
                    <mxGeometry x="110" y="20" width="100" height="100" as="geometry"/>
                </mxCell>
                <mxCell id="57" style="edgeStyle=orthogonalEdgeStyle;rounded=0;html=1;exitX=1;exitY=0.5;exitDx=0;exitDy=0;entryX=0;entryY=0.25;entryDx=0;entryDy=0;endArrow=classic;endFill=1;" parent="61" source="55" target="54" edge="1">
                    <mxGeometry relative="1" as="geometry"/>
                </mxCell>
                <mxCell id="55" value="debounce" style="whiteSpace=wrap;html=1;aspect=fixed;" parent="61" vertex="1">
                    <mxGeometry width="60" height="60" as="geometry"/>
                </mxCell>
                <mxCell id="58" style="edgeStyle=orthogonalEdgeStyle;rounded=0;html=1;exitX=1;exitY=0.5;exitDx=0;exitDy=0;entryX=0;entryY=0.75;entryDx=0;entryDy=0;endArrow=classic;endFill=1;" parent="61" source="56" target="54" edge="1">
                    <mxGeometry relative="1" as="geometry"/>
                </mxCell>
                <mxCell id="56" value="one_pulse" style="whiteSpace=wrap;html=1;aspect=fixed;" parent="61" vertex="1">
                    <mxGeometry y="80" width="60" height="60" as="geometry"/>
                </mxCell>
                <mxCell id="60" value="dir_pulse" style="text;html=1;align=center;verticalAlign=middle;whiteSpace=wrap;rounded=0;fontSize=10;" parent="61" vertex="1">
                    <mxGeometry x="242" y="65" width="40" height="10" as="geometry"/>
                </mxCell>
                <mxCell id="82" value="" style="group" parent="84" vertex="1" connectable="0">
                    <mxGeometry x="320" width="283" height="200" as="geometry"/>
                </mxCell>
                <mxCell id="81" value="" style="rounded=1;whiteSpace=wrap;html=1;dashed=1;" parent="82" vertex="1">
                    <mxGeometry width="283" height="200" as="geometry"/>
                </mxCell>
                <mxCell id="70" style="edgeStyle=orthogonalEdgeStyle;rounded=0;html=1;exitX=1;exitY=0.25;exitDx=0;exitDy=0;endArrow=classic;endFill=1;" parent="82" source="69" edge="1">
                    <mxGeometry relative="1" as="geometry">
                        <mxPoint x="188" y="49.71428571428578" as="targetPoint"/>
                    </mxGeometry>
                </mxCell>
                <mxCell id="73" style="edgeStyle=orthogonalEdgeStyle;rounded=0;html=1;exitX=1;exitY=0.75;exitDx=0;exitDy=0;endArrow=classic;endFill=1;" parent="82" source="69" edge="1">
                    <mxGeometry relative="1" as="geometry">
                        <mxPoint x="188" y="109.92682926829275" as="targetPoint"/>
                    </mxGeometry>
                </mxCell>
                <mxCell id="74" style="edgeStyle=orthogonalEdgeStyle;rounded=0;html=1;exitX=0.25;exitY=1;exitDx=0;exitDy=0;endArrow=classic;endFill=1;entryX=0.25;entryY=1;entryDx=0;entryDy=0;" parent="82" target="69" edge="1">
                    <mxGeometry relative="1" as="geometry">
                        <mxPoint x="48" y="170" as="sourcePoint"/>
                    </mxGeometry>
                </mxCell>
                <mxCell id="76" style="edgeStyle=orthogonalEdgeStyle;rounded=0;html=1;endArrow=classic;endFill=1;entryX=0.5;entryY=1;entryDx=0;entryDy=0;" parent="82" target="69" edge="1">
                    <mxGeometry relative="1" as="geometry">
                        <mxPoint x="78" y="180" as="sourcePoint"/>
                        <Array as="points">
                            <mxPoint x="78" y="160"/>
                            <mxPoint x="78" y="160"/>
                        </Array>
                    </mxGeometry>
                </mxCell>
                <mxCell id="78" style="edgeStyle=orthogonalEdgeStyle;rounded=0;html=1;exitX=0.75;exitY=1;exitDx=0;exitDy=0;endArrow=classic;endFill=1;entryX=0.75;entryY=1;entryDx=0;entryDy=0;" parent="82" target="69" edge="1">
                    <mxGeometry relative="1" as="geometry">
                        <mxPoint x="108" y="170" as="sourcePoint"/>
                    </mxGeometry>
                </mxCell>
                <mxCell id="69" value="MUX" style="whiteSpace=wrap;html=1;aspect=fixed;" parent="82" vertex="1">
                    <mxGeometry x="18" y="20" width="120" height="120" as="geometry"/>
                </mxCell>
                <mxCell id="71" value="next_facing" style="text;html=1;align=center;verticalAlign=middle;whiteSpace=wrap;rounded=0;fontSize=10;" parent="82" vertex="1">
                    <mxGeometry x="190" y="43" width="50" height="10" as="geometry"/>
                </mxCell>
                <mxCell id="72" value="next_state_display" style="text;html=1;align=center;verticalAlign=middle;whiteSpace=wrap;rounded=0;fontSize=10;" parent="82" vertex="1">
                    <mxGeometry x="188" y="104" width="90" height="10" as="geometry"/>
                </mxCell>
                <mxCell id="75" value="facing" style="text;html=1;align=center;verticalAlign=middle;whiteSpace=wrap;rounded=0;fontSize=10;" parent="82" vertex="1">
                    <mxGeometry x="63" y="180" width="30" height="10" as="geometry"/>
                </mxCell>
                <mxCell id="77" value="state_display" style="text;html=1;align=center;verticalAlign=middle;whiteSpace=wrap;rounded=0;fontSize=10;" parent="82" vertex="1">
                    <mxGeometry x="3" y="170" width="60" height="10" as="geometry"/>
                </mxCell>
                <mxCell id="79" value="dir_pulse" style="text;html=1;align=center;verticalAlign=middle;whiteSpace=wrap;rounded=0;fontSize=10;" parent="82" vertex="1">
                    <mxGeometry x="98" y="170" width="40" height="10" as="geometry"/>
                </mxCell>
                <mxCell id="83" style="edgeStyle=orthogonalEdgeStyle;rounded=0;html=1;exitX=1;exitY=0.5;exitDx=0;exitDy=0;entryX=0;entryY=0.5;entryDx=0;entryDy=0;endArrow=classic;endFill=1;" parent="84" source="80" target="81" edge="1">
                    <mxGeometry relative="1" as="geometry"/>
                </mxCell>
                <mxCell id="86" style="edgeStyle=orthogonalEdgeStyle;rounded=0;html=1;exitX=1;exitY=0.5;exitDx=0;exitDy=0;entryX=0;entryY=0.528;entryDx=0;entryDy=0;entryPerimeter=0;endArrow=classic;endFill=1;" parent="1" source="81" target="10" edge="1">
                    <mxGeometry relative="1" as="geometry"/>
                </mxCell>
                <mxCell id="90" style="edgeStyle=none;html=1;exitX=0;exitY=0.5;exitDx=0;exitDy=0;entryX=0;entryY=0.5;entryDx=0;entryDy=0;" edge="1" parent="1" target="89">
                    <mxGeometry relative="1" as="geometry">
                        <mxPoint x="1484" y="259.80952380952374" as="sourcePoint"/>
                    </mxGeometry>
                </mxCell>
                <mxCell id="92" style="edgeStyle=none;html=1;exitX=1;exitY=0.5;exitDx=0;exitDy=0;" edge="1" parent="1" source="89">
                    <mxGeometry relative="1" as="geometry">
                        <mxPoint x="1654" y="259.80952380952374" as="targetPoint"/>
                    </mxGeometry>
                </mxCell>
                <mxCell id="93" style="edgeStyle=none;html=1;exitX=0;exitY=0.75;exitDx=0;exitDy=0;entryX=0;entryY=0.75;entryDx=0;entryDy=0;" edge="1" parent="1" target="89">
                    <mxGeometry relative="1" as="geometry">
                        <mxPoint x="1484" y="279.80952380952374" as="sourcePoint"/>
                    </mxGeometry>
                </mxCell>
                <mxCell id="89" value="clock_divider" style="whiteSpace=wrap;html=1;aspect=fixed;" vertex="1" parent="1">
                    <mxGeometry x="1534" y="220" width="80" height="80" as="geometry"/>
                </mxCell>
                <mxCell id="91" value="clk" style="text;html=1;align=center;verticalAlign=middle;whiteSpace=wrap;rounded=0;fontSize=10;" vertex="1" parent="1">
                    <mxGeometry x="1464" y="254" width="20" height="10" as="geometry"/>
                </mxCell>
                <mxCell id="94" value="n = 27" style="text;html=1;align=center;verticalAlign=middle;whiteSpace=wrap;rounded=0;fontSize=10;" vertex="1" parent="1">
                    <mxGeometry x="1452" y="275" width="32" height="10" as="geometry"/>
                </mxCell>
                <mxCell id="95" value="clk_1sec" style="text;html=1;align=center;verticalAlign=middle;whiteSpace=wrap;rounded=0;fontSize=10;" vertex="1" parent="1">
                    <mxGeometry x="1654" y="254" width="50" height="10" as="geometry"/>
                </mxCell>
            </root>
        </mxGraphModel>
    </diagram>
</mxfile>